<?xml version="1.0" standalone="no"?>
<!DOCTYPE svg PUBLIC "-//W3C//DTD SVG 20010904//EN"
 "http://www.w3.org/TR/2001/REC-SVG-20010904/DTD/svg10.dtd">
<svg version="1.0" xmlns="http://www.w3.org/2000/svg"
 width="300.000000pt" height="280.000000pt" viewBox="0 0 300.000000 280.000000"
 preserveAspectRatio="xMidYMid meet">

<g transform="translate(0.000000,280.000000) scale(0.100000,-0.100000)"
fill="#000000" stroke="none">
<path d="M1603 2653 c180 -2 474 -2 655 0 180 1 32 2 -328 2 -360 0 -508 -1
-327 -2z"/>
<path d="M114 2641 c6 -9 106 -4 115 5 2 2 -24 4 -58 4 -35 0 -60 -4 -57 -9z"/>
<path d="M90 2625 c0 -8 29 -45 65 -82 84 -88 84 -68 0 25 -36 40 -65 66 -65
57z"/>
<path d="M2790 2486 c0 -2 8 -10 18 -17 15 -13 16 -12 3 4 -13 16 -21 21 -21
13z"/>
<path d="M250 2454 c0 -6 16 -25 35 -44 19 -19 35 -29 35 -24 0 6 -16 25 -35
44 -19 19 -35 29 -35 24z"/>
<path d="M2880 2391 c0 -8 -84 -11 -296 -11 -190 0 -293 -3 -289 -10 7 -11
615 -11 615 0 0 4 -7 13 -15 20 -10 9 -15 9 -15 1z"/>
<path d="M334 2371 c3 -5 93 -9 201 -9 107 0 199 -4 205 -7 5 -3 10 1 10 9 0
14 -27 16 -211 16 -118 0 -208 -4 -205 -9z"/>
<path d="M1060 2369 c19 -4 226 -8 460 -8 234 0 435 0 447 0 14 -1 23 -9 26
-23 3 -17 5 -14 6 10 l1 32 -487 -1 c-298 -1 -474 -4 -453 -10z"/>
<path d="M745 1945 c0 -214 1 -301 2 -192 2 109 2 285 0 390 -1 106 -2 17 -2
-198z"/>
<path d="M255 1787 c-11 -9 -14 -16 -8 -20 6 -4 14 0 17 9 3 8 10 12 16 9 5
-3 10 -1 10 4 0 15 -12 14 -35 -2z"/>
<path d="M338 1793 c7 -3 16 -2 19 1 4 3 -2 6 -13 5 -11 0 -14 -3 -6 -6z"/>
<path d="M210 1750 c0 -5 5 -10 10 -10 6 0 10 5 10 10 0 6 -4 10 -10 10 -5 0
-10 -4 -10 -10z"/>
<path d="M170 1675 c-16 -43 5 -153 26 -132 4 3 2 12 -3 19 -18 22 -23 63 -13
98 12 42 4 53 -10 15z"/>
<path d="M570 1636 c0 -2 8 -10 18 -17 15 -13 16 -12 3 4 -13 16 -21 21 -21
13z"/>
<path d="M200 1520 c0 -5 5 -10 10 -10 6 0 10 5 10 10 0 6 -4 10 -10 10 -5 0
-10 -4 -10 -10z"/>
<path d="M714 1492 c22 -26 36 -28 36 -6 0 8 -5 12 -10 9 -6 -4 -19 -1 -28 6
-13 11 -12 8 2 -9z"/>
<path d="M229 1482 c11 -21 51 -58 51 -48 0 5 -9 21 -21 37 -22 32 -46 41 -30
11z"/>
<path d="M486 1492 c-3 -5 5 -8 16 -8 28 1 47 -36 49 -94 0 -38 2 -42 10 -24
7 14 7 37 -3 75 -11 47 -16 54 -40 57 -14 2 -29 -1 -32 -6z"/>
<path d="M1993 1445 c0 -27 2 -38 4 -22 2 15 2 37 0 50 -2 12 -4 0 -4 -28z"/>
<path d="M1040 1431 c0 -6 4 -13 10 -16 6 -3 7 1 4 9 -7 18 -14 21 -14 7z"/>
<path d="M290 1420 c0 -5 28 -39 63 -74 34 -36 103 -109 152 -162 156 -167
256 -266 262 -260 4 3 -41 54 -98 113 -99 102 -156 163 -298 313 -33 36 -61
68 -61 73 0 4 -4 7 -10 7 -5 0 -10 -4 -10 -10z"/>
<path d="M1138 1403 c23 -2 61 -2 85 0 23 2 4 4 -43 4 -47 0 -66 -2 -42 -4z"/>
<path d="M1025 1110 c-12 -5 14 -6 65 -3 47 3 87 7 89 9 9 8 -135 2 -154 -6z"/>
<path d="M1453 1113 c104 -2 270 -2 370 0 100 1 16 2 -188 2 -203 0 -285 -1
-182 -2z"/>
<path d="M958 1103 c6 -2 18 -2 25 0 6 3 1 5 -13 5 -14 0 -19 -2 -12 -5z"/>
<path d="M890 1085 c-33 -19 -21 -19 21 0 19 8 27 14 19 14 -8 0 -26 -6 -40
-14z"/>
<path d="M782 902 c2 -7 65 -77 140 -155 76 -78 184 -191 242 -252 58 -60 108
-107 111 -103 7 6 -120 142 -353 378 -79 80 -142 139 -140 132z"/>
<path d="M2010 513 c0 -13 72 -84 79 -77 3 2 -14 24 -37 47 -23 23 -42 37 -42
30z"/>
<path d="M2120 402 c0 -10 33 -42 44 -42 3 0 -1 11 -10 25 -16 25 -34 33 -34
17z"/>
<path d="M1290 375 c0 -16 117 -141 125 -133 4 4 -23 37 -59 75 -36 37 -66 64
-66 58z"/>
<path d="M2180 350 c0 -6 22 -34 50 -63 27 -29 50 -47 50 -41 0 7 -22 35 -50
63 -27 28 -50 46 -50 41z"/>
<path d="M1535 260 c-3 -5 -2 -10 4 -10 5 0 13 5 16 10 3 6 2 10 -4 10 -5 0
-13 -4 -16 -10z"/>
<path d="M1430 211 c12 -23 29 -35 37 -27 7 7 -26 46 -39 46 -5 0 -4 -9 2 -19z"/>
</g>
</svg>
