<?xml version="1.0" standalone="no"?>
<!DOCTYPE svg PUBLIC "-//W3C//DTD SVG 20010904//EN"
 "http://www.w3.org/TR/2001/REC-SVG-20010904/DTD/svg10.dtd">
<svg version="1.0" xmlns="http://www.w3.org/2000/svg"
 width="300.000000pt" height="280.000000pt" viewBox="0 0 300.000000 280.000000"
 preserveAspectRatio="xMidYMid meet">

<g transform="translate(0.000000,280.000000) scale(0.100000,-0.100000)"
fill="#e4d00a" stroke="none">
<path d="M683 2650 c-325 -3 -594 -8 -598 -12 -11 -11 26 -56 143 -171 l109
-107 199 2 199 3 3 -437 c1 -241 -1 -438 -5 -438 -3 0 -63 56 -132 123 -140
137 -213 187 -277 187 -45 0 -94 -28 -127 -71 -44 -60 -36 -166 17 -230 51
-62 379 -410 684 -727 166 -172 358 -374 428 -450 70 -75 131 -139 136 -141
12 -4 101 86 96 98 -1 5 -124 134 -273 288 -148 153 -311 321 -362 373 -68 70
-89 98 -81 107 5 7 35 22 66 34 54 21 79 23 542 32 267 6 498 7 513 3 l27 -6
0 -293 0 -292 145 -145 145 -145 0 1063 0 1062 183 2 c100 1 239 1 309 0 70
-1 129 2 132 6 3 5 -59 72 -138 150 l-143 142 -674 -2 c-371 -1 -940 -5 -1266
-8z m1305 -763 l2 -477 -458 0 c-368 0 -462 3 -477 13 -17 13 -18 42 -23 471
-3 315 -2 460 6 465 5 3 221 6 479 5 l468 0 3 -477z m-1453 -406 c15 -26 22
-102 9 -118 -12 -17 -14 -17 -41 3 -15 12 -32 33 -37 47 -8 22 -6 31 14 52 24
26 45 32 55 16z"/>
</g>
</svg>
